<svg id="Layer_1" enable-background="new 0 0 256 256" height="512" viewBox="0 0 256 256" width="512" xmlns="http://www.w3.org/2000/svg"><g><g><path d="m149.408 123.649c.97-.085 1.924 0 2.835.216l-24.209-6.94-4.134 8.956z" fill="#f9cfcf"/></g><g><path d="m123.899 127.881c-.647 0-1.259-.314-1.636-.85-.41-.583-.479-1.341-.18-1.988l4.134-8.956c.414-.896 1.417-1.359 2.367-1.085l24.209 6.94c1.045.3 1.659 1.379 1.384 2.43-.275 1.052-1.342 1.688-2.397 1.438-.737-.175-1.477-.231-2.198-.17l-25.508 2.232c-.059.006-.117.009-.175.009zm5.232-8.561-1.97 4.268 12.915-1.13z" fill="#3762cc"/></g><g><path d="m176.177 180.997-48.498-13.547-3.95 19.381 48.385 7.592z" fill="#f9cfcf"/></g><g><path d="m138.671 170.521-3.988 18.029 37.431 5.873 4.063-13.426z" fill="#e0ebfc"/></g><g><path d="m138.558 189.158 3.283.515 3.806-17.204-3.2-.893z" fill="#a4c9ff"/></g><g><path d="m88.879 211.223c-3.492 3.492-9.154 3.492-12.646 0l-8.463-8.463c-3.492-3.492-3.492-9.154 0-12.646 3.492-3.492 9.154-3.492 12.646 0l8.463 8.463c3.492 3.491 3.492 9.153 0 12.646z" fill="#4671c6"/></g><g><path d="m108.305 191.507-27.886-1.602-6.751-.36c-1.639-.087-3.181.778-3.96 2.222-1.123 2.082-.326 4.68 1.771 5.774l25.757 13.447z" fill="#e0ebfc"/></g><g><path d="m82.556 215.837c-2.802 0-5.604-1.066-7.737-3.2l-8.463-8.463c-4.266-4.267-4.266-11.208 0-15.475 4.267-4.268 11.208-4.268 15.475 0l8.462 8.463c4.267 4.267 4.267 11.208 0 15.475-2.133 2.134-4.935 3.2-7.737 3.2zm-8.463-26.34c-1.778 0-3.556.677-4.909 2.03-2.706 2.707-2.706 7.111 0 9.818l8.462 8.463c2.708 2.708 7.111 2.708 9.818 0 2.707-2.707 2.707-7.111 0-9.818l-8.462-8.463c-1.353-1.353-3.131-2.03-4.909-2.03z" fill="#3762cc"/></g><g><path d="m97.235 212.988c-.313 0-.629-.073-.924-.228l-25.757-13.447c-1.492-.778-2.585-2.094-3.079-3.703s-.325-3.312.474-4.793c1.14-2.113 3.425-3.392 5.826-3.271l6.751.36 27.894 1.603c.69.04 1.312.434 1.642 1.041s.324 1.343-.018 1.944l-11.069 19.481c-.367.648-1.043 1.013-1.74 1.013zm-23.791-21.45c-.818 0-1.584.453-1.976 1.178-.287.532-.347 1.144-.17 1.722s.57 1.051 1.106 1.331l24.046 12.554 8.525-15.004-31.414-1.777c-.039-.003-.078-.004-.117-.004z" fill="#3762cc"/></g><g><path d="m176.177 180.997-4.064 13.426 4.171 4.141c1.358 1.348 3.193 2.104 5.106 2.104 1.893 0 3.71-.74 5.064-2.063l17.168-16.768c2.232-2.18 2.185-5.785-.103-7.907-1.517-1.406-3.697-1.834-5.633-1.105z" fill="#4671c6"/></g><g><path d="m53.902 110.684-24.331 19.871 13.588 16.11 15.133-9.329 2.361 26.981 42.502-3.718-2.583-29.523 18.039 6.26 9.423-20.411-27.961-10.848c-1.149-.446-2.386-.622-3.614-.515l-38.164 3.337c-1.611.141-3.141.763-4.393 1.785z" fill="#6bdddd"/></g><g><path d="m62.427 108.537 14.015 11.485c1.049.859 2.592.724 3.474-.306l11.781-13.74z" fill="#e0ebfc"/></g><g><path d="m76.88 105.031c-3.578.313-7.023-.269-10.118-1.554l.406 4.645 9.81 8.039c.524.43 1.296.362 1.737-.153l8.247-9.618-.405-4.635c-2.822 1.797-6.107 2.964-9.677 3.276z" fill="#f9cfcf"/></g><g><path d="m60.65 166.317c-1.025 0-1.899-.784-1.99-1.826l-2.078-23.752-12.375 7.628c-.842.522-1.939.346-2.578-.413l-13.588-16.109c-.346-.409-.512-.94-.462-1.474.049-.534.311-1.025.726-1.364l24.331-19.871c1.569-1.282 3.466-2.053 5.484-2.229l6.881-.603-.232-2.652c-.061-.697.246-1.375.81-1.788.565-.413 1.303-.501 1.949-.233 2.917 1.211 6.004 1.685 9.177 1.408 3.163-.277 6.116-1.276 8.776-2.971.591-.374 1.333-.414 1.959-.106.627.31 1.047.924 1.107 1.62l.231 2.644 7.504-.655c1.528-.135 3.086.089 4.513.643l27.96 10.848c.515.199.924.603 1.131 1.115s.192 1.086-.039 1.587l-9.422 20.411c-.431.935-1.499 1.388-2.472 1.052l-15.122-5.247 2.313 26.446c.046.529-.119 1.054-.46 1.46-.341.407-.83.661-1.358.707l-42.502 3.718c-.056.004-.115.006-.174.006zm-2.358-30.981c.307 0 .615.07.898.213.62.312 1.034.922 1.094 1.613l2.186 24.988 38.518-3.369-2.409-27.529c-.059-.676.228-1.335.763-1.752.536-.418 1.246-.535 1.885-.313l16.327 5.665 7.771-16.833-25.976-10.078c-.858-.333-1.798-.463-2.716-.387l-9.499.83c-.836.062-1.632-.385-1.987-1.147-.114-.245-.175-.505-.186-.764l-.132-1.508c-2.444 1.12-5.084 1.822-7.775 2.058-2.701.236-5.429 0-8.034-.682l.14 1.606c.096 1.1-.717 2.069-1.818 2.166l-8.873.777c-1.215.106-2.357.57-3.302 1.342l-22.757 18.587 11.167 13.239 13.667-8.425c.319-.197.684-.297 1.048-.297z" fill="#3762cc"/></g><g><path d="m91.36 120.762-3.489.305c-.412.036-.716.399-.68.811l.563 6.437c.024.275.198.514.452.623l3.652 1.56c.115.049.238.068.359.057z" fill="#e0ebfc"/></g><g><path d="m92.56 130.436 3.326-2.17c.231-.151.361-.417.336-.692l-.563-6.437c-.036-.412-.399-.716-.811-.68l-3.489.305.857 9.793c.121-.011.24-.051.344-.119z" fill="#4671c6"/></g><g><path d="m95.649 74.006-.175-1.996c-1.021-11.669-11.394-20.294-23.17-19.264-11.775 1.03-20.493 11.325-19.472 22.994l.175 1.996c-3.709.249-6.388 3.455-6.076 7.02.333 3.807 3.92 6.527 7.763 5.778 3.018 9.156 12.083 15.38 22.185 14.497 10.102-.884 17.948-8.589 19.331-18.129 3.91.071 6.976-3.226 6.642-7.038-.312-3.566-3.509-6.256-7.203-5.858z" fill="#f9cfcf"/></g><g><path d="m77.128 97.742c-1.482 0-2.881-.478-3.911-1.348-.918-.776-1.479-1.817-1.576-2.931-.072-.825.538-1.553 1.363-1.625.824-.065 1.553.539 1.625 1.363.036.409.305.716.524.901.554.469 1.417.71 2.319.623.901-.078 1.688-.448 2.16-1.015.184-.221.396-.57.36-.979-.072-.825.538-1.553 1.363-1.625.828-.075 1.553.537 1.625 1.363.098 1.113-.273 2.235-1.043 3.16-.979 1.176-2.511 1.936-4.204 2.084-.201.02-.404.029-.605.029z" fill="#3762cc"/></g><g><path d="m87.994 87.542c-1.654.145-3.112-1.079-3.256-2.732l-.279-3.194c-.145-1.654 1.079-3.112 2.732-3.256 1.654-.145 3.112 1.079 3.256 2.732l.279 3.194c.145 1.653-1.079 3.111-2.732 3.256z" fill="#3762cc"/></g><g><path d="m65.85 89.479c-1.654.145-3.112-1.079-3.256-2.732l-.279-3.194c-.145-1.654 1.079-3.112 2.732-3.256 1.654-.145 3.112 1.079 3.256 2.732l.279 3.194c.145 1.654-1.078 3.111-2.732 3.256z" fill="#3762cc"/></g><g><path d="m74.951 107.115c-9.521.001-18.037-5.678-21.605-14.458-1.818-.019-3.6-.611-5.066-1.716-1.915-1.441-3.132-3.633-3.34-6.01-.199-2.276.513-4.489 2.005-6.231 1.052-1.229 2.402-2.111 3.914-2.584l-.018-.202c-.541-6.179 1.378-12.199 5.403-16.953 4.021-4.748 9.663-7.663 15.887-8.207 6.221-.544 12.287 1.346 17.071 5.324 4.79 3.982 7.725 9.578 8.265 15.758l.018.201c1.572.202 3.054.839 4.304 1.866 1.771 1.456 2.856 3.511 3.055 5.787.208 2.378-.61 4.746-2.245 6.499-1.253 1.342-2.904 2.235-4.691 2.568-2.136 9.944-10.501 17.36-20.854 18.266-.705.062-1.407.092-2.103.092zm-20.255-18.58c.848 0 1.624.542 1.898 1.374 2.809 8.52 11.075 13.919 20.111 13.13 9.032-.79 16.239-7.544 17.526-16.424.143-.984.987-1.713 1.979-1.713.041.001.084.001.126.001 1.285 0 2.468-.511 3.338-1.443.875-.938 1.296-2.153 1.186-3.422-.105-1.195-.677-2.277-1.611-3.045-.946-.777-2.145-1.131-3.385-.999-.534.06-1.07-.102-1.484-.443-.415-.341-.675-.835-.722-1.37l-.175-1.996c-.447-5.108-2.875-9.736-6.838-13.031-3.968-3.299-8.997-4.868-14.165-4.415-5.167.452-9.848 2.87-13.183 6.808-3.331 3.933-4.918 8.912-4.472 14.02l.175 1.996c.047.535-.124 1.067-.474 1.476-.35.408-.849.658-1.385.693-1.24.083-2.362.641-3.159 1.57-.787.919-1.163 2.084-1.059 3.28.111 1.268.737 2.392 1.762 3.163 1.043.786 2.331 1.076 3.627.826.129-.024.257-.036.384-.036z" fill="#3762cc"/></g><g><path d="m74.951 107.115c-9.521.001-18.037-5.678-21.605-14.458-1.818-.019-3.6-.611-5.066-1.716-1.915-1.441-3.132-3.633-3.34-6.01-.199-2.276.513-4.489 2.005-6.231 1.052-1.229 2.402-2.111 3.914-2.584l-.018-.202c-.126-1.437-.114-2.908.035-4.372 1.082-7.364 6.949-12.894 14.278-13.535l16.835-1.473c4.432-.388 8.842 1.377 11.793 4.722.07.079.133.163.189.252 1.995 3.144 3.17 6.618 3.495 10.328l.018.201c1.572.202 3.054.839 4.304 1.866 1.771 1.456 2.857 3.512 3.056 5.788.208 2.377-.61 4.745-2.245 6.497-1.253 1.343-2.904 2.236-4.691 2.569-2.136 9.944-10.502 17.36-20.854 18.266-.705.062-1.407.092-2.103.092zm-20.255-18.58c.848 0 1.624.542 1.898 1.374 2.809 8.52 11.075 13.919 20.111 13.13 9.032-.79 16.239-7.544 17.526-16.424.143-.984.987-1.713 1.979-1.713.041.001.084.001.126.001 1.285 0 2.468-.511 3.339-1.443.875-.938 1.296-2.152 1.185-3.42-.105-1.197-.677-2.278-1.611-3.047-.946-.777-2.145-1.131-3.385-.999-.534.06-1.07-.102-1.484-.443-.415-.341-.675-.835-.722-1.37l-.175-1.996c-.264-3.012-1.206-5.836-2.802-8.397-2.141-2.355-5.167-3.547-8.342-3.269l-16.835 1.473c-5.476.479-9.859 4.61-10.659 10.045-.113 1.126-.123 2.343-.019 3.529l.174 1.997c.047.535-.124 1.067-.474 1.476-.35.408-.849.658-1.385.693-1.24.083-2.362.641-3.159 1.57-.787.919-1.163 2.084-1.059 3.28.111 1.268.737 2.392 1.762 3.163 1.043.786 2.331 1.076 3.627.826.129-.024.257-.036.384-.036z" fill="#3762cc"/></g><g><path d="m48.654 73.716c.155 1.776.675 3.433 1.474 4.906.846-.494 1.819-.814 2.879-.885l-.175-1.996c-.119-1.355-.1-2.69.033-3.995.91-6.189 5.959-11.177 12.463-11.746l16.836-1.473c3.976-.348 7.667 1.273 10.119 4.053 1.751 2.759 2.888 5.958 3.191 9.431l.175 1.996c1.05-.113 2.057.03 2.973.366.53-1.588.753-3.306.597-5.08l-.543-6.212c-.344-3.934-2.463-7.285-5.498-9.337-1.585-7.144-8.253-12.182-15.74-11.527l-1.009.088c-9.361.819-18.088 4.784-25.199 10.927-1.99 1.719-4.322 2.902-6.881 3.375-.738.136-1.251.812-1.185 1.559l.122 1.394c.344 3.928 2.219 7.35 4.981 9.743z" fill="#4671c6"/></g><g><path d="m50.128 80.622c-.181 0-.362-.024-.539-.074-.521-.146-.961-.496-1.219-.972-.958-1.766-1.533-3.679-1.708-5.687v.001l-.318-3.637c-2.913-2.784-4.697-6.489-5.049-10.521l-.122-1.395c-.156-1.783 1.053-3.374 2.813-3.7 2.157-.398 4.155-1.381 5.938-2.922 7.669-6.625 16.775-10.569 26.333-11.405l1.009-.088c8.11-.706 15.567 4.548 17.679 12.324 3.291 2.49 5.364 6.223 5.726 10.357l.543 6.213c.176 2.004-.058 3.984-.693 5.888-.171.513-.543.935-1.03 1.169-.487.233-1.048.26-1.556.075-.668-.247-1.365-.332-2.069-.256-.534.06-1.07-.102-1.484-.443-.415-.341-.675-.835-.722-1.37l-.175-1.996c-.264-3.012-1.206-5.836-2.802-8.397-2.14-2.355-5.167-3.547-8.342-3.269l-16.835 1.473c-5.476.479-9.859 4.61-10.659 10.045-.113 1.126-.123 2.343-.019 3.529l.172 1.999c.047.535-.124 1.066-.473 1.475s-.849.658-1.385.694c-.712.048-1.386.256-2.005.617-.31.18-.658.273-1.009.273zm-4.929-22.147.079.91c.286 3.267 1.813 6.252 4.299 8.405.393.34.638.819.683 1.337l.386 4.414v.001c.026.296.064.589.114.879-.021-.955.018-1.919.116-2.879 1.082-7.364 6.949-12.894 14.278-13.535l16.835-1.473c4.432-.388 8.842 1.377 11.793 4.722.07.079.133.163.189.252 1.699 2.677 2.804 5.595 3.294 8.692-.005-.244-.018-.488-.039-.733l-.543-6.213c-.28-3.192-1.966-6.055-4.626-7.854-.424-.287-.722-.725-.833-1.224-1.384-6.241-7.234-10.527-13.613-9.969l-1.009.088c-8.714.763-17.036 4.376-24.065 10.448-2.194 1.898-4.661 3.152-7.338 3.732z" fill="#3762cc"/></g><g><path d="m149.408 123.649-30.956 2.708-5.233-1.356-9.173.803c-2.735.239-4.758 2.65-4.519 5.385l.669 7.642c.239 2.735 2.65 4.758 5.385 4.518l9.173-.803 4.963-1.733 30.839-.384c4.98-.062 8.838-4.416 8.259-9.399-.532-4.576-4.816-7.783-9.407-7.381z" fill="#f9cfcf"/></g><g><path d="m105.136 145.368c-1.634 0-3.202-.568-4.468-1.631-1.426-1.197-2.301-2.878-2.463-4.733l-.668-7.642c-.163-1.854.407-3.661 1.604-5.088 1.197-1.426 2.877-2.301 4.732-2.463l9.173-.803c.228-.02.456-.001.676.057l4.9 1.27 30.612-2.679h.001c5.718-.507 10.924 3.601 11.567 9.144.341 2.932-.58 5.881-2.525 8.093-1.945 2.211-4.75 3.501-7.695 3.537l-30.513.38-4.655 1.625c-.157.056-.319.09-.485.104l-9.173.802c-.208.018-.415.027-.62.027zm7.915-18.345-8.83.772c-.791.069-1.507.442-2.017 1.05s-.753 1.378-.684 2.168l.668 7.643c.069.79.442 1.507 1.05 2.017.608.511 1.38.757 2.168.684l8.924-.78 4.728-1.65c.204-.071.418-.109.634-.112l30.84-.384c1.813-.022 3.542-.816 4.74-2.18 1.217-1.382 1.77-3.154 1.557-4.988-.397-3.414-3.647-5.929-7.247-5.621h.001l-30.956 2.709c-.228.019-.456.001-.676-.057z" fill="#3762cc"/></g><g><path d="m87.904 171.106.001-9.172c-10.597.926-4.388.383-27.252 2.384l.797 11.396c.146 2.096 1.042 4.066 2.527 5.552 2.101 2.104 7.651 7.652 27.285 27.286l17.045-17.045c-9.969-9.968-16.315-16.313-20.403-20.401z" fill="#4671c6"/></g><g><path d="m91.261 210.552c-.53 0-1.039-.211-1.414-.586l-27.286-27.287c-1.824-1.825-2.927-4.25-3.107-6.825l-.796-11.396c-.076-1.089.734-2.037 1.821-2.132l27.252-2.385c.56-.047 1.112.14 1.525.518.414.379.649.914.649 1.475v8.346l19.814 19.813c.781.781.781 2.047 0 2.828l-17.044 17.045c-.375.375-.884.586-1.414.586zm-28.476-44.412.659 9.435c.113 1.615.804 3.134 1.947 4.278l25.87 25.871 14.216-14.217-18.987-18.986c-.375-.375-.586-.884-.586-1.414l.001-6.99z" fill="#3762cc"/></g><g><path d="m111.062 194.264-2.757-2.757-15.413 15.413 2.757 2.757c4.256 4.256 11.157 4.256 15.413 0 4.256-4.256 4.256-11.157 0-15.413z" fill="#f9cfcf"/></g><g><path d="m103.356 214.869c-3.445 0-6.685-1.342-9.121-3.778l-2.757-2.757c-.375-.375-.586-.884-.586-1.414s.21-1.039.586-1.414l15.413-15.413c.78-.781 2.047-.781 2.828 0l2.757 2.757c5.029 5.029 5.029 13.212 0 18.241-2.435 2.436-5.675 3.778-9.12 3.778zm-7.635-7.949 1.343 1.343c1.681 1.681 3.916 2.606 6.292 2.606s4.611-.926 6.292-2.606c3.469-3.47 3.469-9.115 0-12.585l-1.343-1.343z" fill="#3762cc"/></g><g><path d="m172.115 196.423c-.104 0-.207-.008-.312-.024l-48.385-7.593c-.54-.084-1.021-.386-1.333-.835-.312-.448-.426-1.005-.317-1.54l3.95-19.38c.111-.544.443-1.018.917-1.307.473-.291 1.046-.371 1.581-.22l48.498 13.547c.518.145.956.491 1.215.963s.317 1.027.161 1.542l-4.063 13.426c-.257.854-1.044 1.421-1.912 1.421zm-46.009-11.244 44.597 6.998 2.968-9.803-44.462-12.42z" fill="#3762cc"/></g><g><path d="m181.391 202.668c-2.457 0-4.771-.953-6.515-2.685l-4.172-4.142c-.525-.521-.72-1.29-.505-1.998l4.063-13.426c.18-.596.627-1.073 1.21-1.293l21.71-8.172c2.66-.999 5.61-.423 7.696 1.511 1.513 1.402 2.36 3.311 2.387 5.373s-.771 3.99-2.246 5.432l-17.168 16.768c-1.737 1.697-4.032 2.632-6.46 2.632zm-7.015-8.817 3.318 3.295c.989.981 2.302 1.522 3.696 1.522 1.378 0 2.681-.53 3.666-1.493l17.168-16.768c.684-.668 1.054-1.563 1.042-2.519-.013-.956-.406-1.841-1.107-2.491-.967-.896-2.335-1.167-3.568-.7l-20.786 7.824z" fill="#3762cc"/></g><g><path d="m91.261 210.552c-.53 0-1.039-.211-1.414-.586l-27.286-27.287c-1.824-1.825-2.927-4.25-3.107-6.825l-.796-11.396c-.076-1.089.734-2.037 1.821-2.132l27.252-2.385c.56-.047 1.112.14 1.525.518.414.379.649.914.649 1.475v8.346l19.814 19.813c.781.781.781 2.047 0 2.828l-17.044 17.045c-.375.375-.884.586-1.414.586zm-28.476-44.412.659 9.435c.113 1.615.804 3.134 1.947 4.278l25.87 25.871 14.216-14.217-18.987-18.986c-.375-.375-.586-.884-.586-1.414l.001-6.99z" fill="#3762cc"/></g><g><path d="m87.905 161.934v9.172h-.001c3.137 3.137 7.61 7.609 14.02 14.02l21.178 4.779 4.576-22.455-24.524-6.85z" fill="#4671c6"/></g><g><path d="m123.102 191.904c-.147 0-.294-.017-.44-.049l-21.178-4.779c-.369-.083-.707-.27-.974-.537l-14.02-14.019c-.375-.375-.586-.884-.586-1.414l.001-9.172c0-1.037.792-1.902 1.826-1.992l15.25-1.334c.239-.021.481.001.712.065l24.524 6.85c1.011.283 1.631 1.298 1.422 2.326l-4.577 22.455c-.107.526-.422.988-.874 1.28-.326.211-.704.32-1.086.32zm-20.173-8.602 18.621 4.202 3.797-18.629-22.38-6.251-13.062 1.143v6.511z" fill="#3762cc"/></g><g><path d="m26.126 137.734c1.95-.171 3.669 1.272 3.84 3.222l.956 10.925c.043.494-.011.969-.108 1.431l12.345-6.647-13.588-16.11c-6.089 4.749-8.242 6.441-9.944 7.748z" fill="#f9cfcf"/></g><g><path d="m30.814 155.313c-.423 0-.844-.134-1.197-.397-.624-.466-.92-1.251-.761-2.013.071-.338.094-.607.073-.849l-.956-10.922c-.036-.412-.23-.785-.546-1.05s-.717-.396-1.127-.355l-6.499.568c-.883.074-1.716-.438-2.038-1.267s-.059-1.771.646-2.312c1.17-.898 2.553-1.979 5.287-4.113l4.646-3.626c.847-.661 2.065-.534 2.759.288l13.587 16.11c.389.46.548 1.071.436 1.663-.113.592-.486 1.102-1.017 1.387l-12.345 6.647c-.297.161-.623.241-.948.241zm-4.369-19.592c1.3 0 2.546.451 3.554 1.297 1.134.952 1.83 2.29 1.959 3.766l.806 9.208 7.278-3.919-10.758-12.756-3.087 2.409c.083-.003.165-.005.248-.005zm-.319 2.013h.01z" fill="#3762cc"/></g><g><path d="m26.463 157.195-13.18 1.153c-2.698.236-5.077-1.76-5.313-4.458l-.956-10.925c-.171-1.95 1.272-3.669 3.222-3.84l15.89-1.39c1.95-.171 3.669 1.272 3.84 3.222l.956 10.925c.236 2.698-1.76 5.077-4.459 5.313z" fill="#f9cfcf"/></g><g><path d="m26.463 157.195-13.18 1.153c-2.698.236-5.077-1.76-5.313-4.458l-.956-10.925c-.171-1.95 1.272-3.669 3.222-3.84l15.89-1.39c1.95-.171 3.669 1.272 3.84 3.222l.956 10.925c.236 2.698-1.76 5.077-4.459 5.313z" fill="#f9cfcf"/></g><g><path d="m12.843 160.367c-1.619 0-3.171-.563-4.425-1.616-1.413-1.186-2.28-2.85-2.44-4.688l-.957-10.923c-.129-1.476.324-2.913 1.276-4.048s2.289-1.831 3.765-1.959l15.89-1.391c1.476-.136 2.913.323 4.047 1.275s1.83 2.289 1.959 3.765l.956 10.925c.332 3.793-2.484 7.148-6.276 7.48l-13.181 1.152c-.206.019-.411.028-.614.028zm13.62-3.172h.01zm-.025-17.474c-.045 0-.091.002-.137.006l-15.891 1.391c-.411.036-.783.229-1.048.546-.265.315-.392.717-.356 1.128l.956 10.924c.068.773.432 1.474 1.026 1.972.595.5 1.35.738 2.12.669l13.181-1.152c1.595-.14 2.78-1.552 2.641-3.147l-.956-10.925c-.036-.411-.23-.784-.546-1.049-.281-.237-.628-.363-.99-.363z" fill="#3762cc"/></g><g><circle cx="224.684" cy="185.243" fill="#e0ebfc" r="24.316"/></g><g><path d="m200.369 185.265 6.921-5.028-2.783-8.566c-2.612 3.876-4.138 8.546-4.138 13.572-.001.007 0 .015 0 .022z" fill="#4671c6"/></g><g><path d="m216.728 162.26 7.957 5.781 7.957-5.781c-2.493-.863-5.17-1.333-7.957-1.333-2.788 0-5.464.47-7.957 1.333z" fill="#4671c6"/></g><g><path d="m214.145 200.456-8.668-.303c2.777 3.572 6.528 6.35 10.856 7.933z" fill="#4671c6"/></g><g><path d="m233.037 208.086c4.327-1.583 8.077-4.36 10.854-7.933l-8.667.303z" fill="#4671c6"/></g><g><path d="m242.03 180.237 6.969 5.063h.001c.012-5.069-1.528-9.777-4.171-13.678z" fill="#4671c6"/></g><g><path d="m224.684 175.741-9.636 7.001 3.681 11.327h11.91l3.681-11.327z" fill="#4671c6"/></g><g><path d="m230.64 196.069h-11.911c-.866 0-1.635-.558-1.902-1.382l-3.68-11.328c-.268-.824.025-1.727.727-2.236l9.636-7c.701-.51 1.65-.51 2.352 0l9.636 7c.701.51.994 1.412.727 2.236l-3.681 11.328c-.27.825-1.038 1.382-1.904 1.382zm-10.458-4h9.005l2.782-8.564-7.284-5.292-7.285 5.292z" fill="#3762cc"/></g><g><path d="m224.685 211.559c-14.511 0-26.316-11.805-26.316-26.315s11.806-26.316 26.316-26.316 26.315 11.804 26.315 26.315-11.805 26.316-26.315 26.316zm0-48.632c-12.306 0-22.316 10.011-22.316 22.316s10.011 22.315 22.316 22.315 22.315-10.011 22.315-22.315c0-12.305-10.011-22.316-22.315-22.316z" fill="#3762cc"/></g><g><path d="m248.868 187.206c-.407 0-.818-.124-1.174-.382l-6.84-4.97c-.701-.51-.994-1.412-.727-2.236l2.723-8.379c.341-1.049 1.469-1.623 2.521-1.284 1.051.342 1.625 1.47 1.284 2.521l-2.273 6.997 5.664 4.115c.894.649 1.092 1.9.442 2.794-.391.538-1.001.824-1.62.824z" fill="#3762cc"/></g><g><path d="m234.32 184.742c-.844 0-1.628-.538-1.902-1.383-.341-1.051.233-2.179 1.284-2.521l7.71-2.505c1.053-.341 2.18.235 2.521 1.284.341 1.051-.233 2.179-1.284 2.521l-7.71 2.505c-.206.067-.415.099-.619.099z" fill="#3762cc"/></g><g><path d="m233.078 209.947c-.183 0-.368-.025-.553-.078-1.062-.305-1.676-1.413-1.371-2.475l2.148-7.49c.239-.832.986-1.416 1.853-1.447l8.457-.296c1.146-.037 2.03.825 2.069 1.929.038 1.104-.825 2.03-1.929 2.069l-7.005.245-1.747 6.094c-.252.877-1.053 1.449-1.922 1.449z" fill="#3762cc"/></g><g><path d="m235.228 202.456c-.623 0-1.235-.289-1.627-.833l-4.586-6.387c-.644-.897-.438-2.147.458-2.792.898-.645 2.146-.438 2.792.458l4.586 6.387c.644.897.438 2.147-.458 2.792-.354.253-.762.375-1.165.375z" fill="#3762cc"/></g><g><path d="m214.146 202.456c-.023 0-.047 0-.07-.001l-8.521-.298c-1.104-.039-1.967-.965-1.929-2.069.039-1.104.939-1.957 2.069-1.929l8.519.298c1.104.038 1.968.964 1.93 2.068-.039 1.08-.925 1.931-1.998 1.931z" fill="#3762cc"/></g><g><path d="m216.101 209.283c-.87 0-1.67-.572-1.922-1.45l-1.957-6.826c-.168-.588-.059-1.22.298-1.717l4.584-6.387c.643-.897 1.894-1.104 2.791-.459s1.103 1.894.459 2.791l-4.02 5.601 1.69 5.896c.304 1.062-.31 2.169-1.372 2.474-.183.052-.369.077-.551.077z" fill="#3762cc"/></g><g><path d="m200.562 187.126c-.619 0-1.229-.286-1.62-.824-.649-.894-.451-2.145.442-2.794l5.554-4.034-2.263-6.965c-.341-1.051.233-2.179 1.284-2.521 1.054-.34 2.18.235 2.521 1.284l2.712 8.347c.268.824-.025 1.727-.727 2.236l-6.729 4.889c-.356.258-.767.382-1.174.382z" fill="#3762cc"/></g><g><path d="m215.049 184.742c-.203 0-.41-.031-.614-.098l-7.76-2.504c-1.051-.339-1.628-1.466-1.289-2.518.34-1.051 1.465-1.632 2.518-1.289l7.76 2.504c1.051.339 1.628 1.466 1.289 2.518-.274.847-1.059 1.387-1.904 1.387z" fill="#3762cc"/></g><g><path d="m224.685 170.041c-.413 0-.825-.127-1.176-.382l-7.826-5.688c-.894-.649-1.092-1.899-.442-2.793s1.902-1.091 2.794-.442l6.65 4.832 6.634-4.819c.894-.65 2.144-.45 2.793.443s.451 2.145-.443 2.793l-7.807 5.673c-.351.255-.764.383-1.177.383z" fill="#3762cc"/></g><g><path d="m224.685 177.741c-1.104 0-2-.896-2-2v-7.7c0-1.104.896-2 2-2s2 .896 2 2v7.7c0 1.105-.896 2-2 2z" fill="#3762cc"/></g><g><path d="m196.295 159.534c-1.116.644-2.543.262-3.187-.854l-4.954-8.58c-.644-1.116-.262-2.543.854-3.187s2.543-.262 3.187.854l4.954 8.58c.644 1.116.261 2.543-.854 3.187z" fill="#f9a7a7"/></g><g><path d="m190.668 170.112c-.517.299-1.148.4-1.77.233l-9.569-2.564c-1.245-.333-1.983-1.613-1.65-2.857.334-1.245 1.613-1.983 2.857-1.65l9.57 2.564c1.244.333 1.983 1.613 1.649 2.857-.167.623-.57 1.119-1.087 1.417z" fill="#f9a7a7"/></g><g><path d="m208.269 159.95c-.517.299-1.148.4-1.77.233-1.244-.333-1.983-1.613-1.649-2.857l2.565-9.569c.334-1.245 1.613-1.983 2.857-1.65s1.983 1.613 1.649 2.857l-2.564 9.569c-.168.623-.571 1.119-1.088 1.417z" fill="#f9a7a7"/></g></g></svg>